<!-- Created with Inkscape (http://www.inkscape.org/) --><svg width="501" xmlns:svg="http://www.w3.org/2000/svg" id="svg2850" height="560" xmlns="http://www.w3.org/2000/svg" version="1.0">
  <defs id="defs2852"/>
  <g id="layer1" transform="translate(300.5,-66.63)">
    <g id="g3282">
      <rect x="-275" y="150" width="50" style="fill:none;stroke:black;stroke-width:1" id="rect25550" height="50"/>
      <rect x="-225" y="150" width="50" style="fill:none;stroke:black;stroke-width:1" id="rect25552" height="50"/>
      <rect x="-175" y="150" width="50" style="fill:none;stroke:black;stroke-width:1" id="rect25554" height="50"/>
      <rect x="-125" y="150" width="50" style="fill:none;stroke:black;stroke-width:1" id="rect25556" height="50"/>
      <rect x="-275" y="200" width="50" style="fill:none;stroke:black;stroke-width:1" id="rect25558" height="50"/>
      <rect x="-225" y="200" width="50" style="fill:none;stroke:black;stroke-width:1" id="rect25560" height="50"/>
      <rect x="-175" y="200" width="50" style="fill:none;stroke:black;stroke-width:1" id="rect25562" height="50"/>
      <rect x="-125" y="200" width="50" style="fill:none;stroke:black;stroke-width:1" id="rect25564" height="50"/>
      <rect x="-275" y="250" width="50" style="fill:none;stroke:black;stroke-width:1" id="rect25566" height="50"/>
      <rect x="-225" y="250" width="50" style="fill:none;stroke:black;stroke-width:1" id="rect25568" height="50"/>
      <rect x="-175" y="250" width="50" style="fill:none;stroke:black;stroke-width:1" id="rect25570" height="50"/>
      <rect x="-125" y="250" width="50" style="fill:none;stroke:black;stroke-width:1" id="rect25572" height="50"/>
      <rect x="-275" y="300" width="50" style="fill:none;stroke:black;stroke-width:1" id="rect25574" height="50"/>
      <rect x="-225" y="300" width="50" style="fill:none;stroke:black;stroke-width:1" id="rect25576" height="50"/>
      <rect x="-175" y="300" width="50" style="fill:none;stroke:black;stroke-width:1" id="rect25578" height="50"/>
      <rect x="-125" y="300" width="50" style="fill:none;stroke:black;stroke-width:1" id="rect25580" height="50"/>
      <rect x="-275" y="350" width="50" style="fill:none;stroke:black;stroke-width:1" id="rect25582" height="50"/>
      <rect x="-225" y="350" width="50" style="fill:none;stroke:black;stroke-width:1" id="rect25584" height="50"/>
      <rect x="-175" y="350" width="50" style="fill:none;stroke:black;stroke-width:1" id="rect25586" height="50"/>
      <rect x="-125" y="350" width="50" style="fill:none;stroke:black;stroke-width:1" id="rect25588" height="50"/>
      <rect x="-275" y="400" width="50" style="fill:none;stroke:black;stroke-width:1" id="rect25590" height="50"/>
      <rect x="-225" y="400" width="50" style="fill:none;stroke:black;stroke-width:1" id="rect25592" height="50"/>
      <rect x="-175" y="400" width="50" style="fill:none;stroke:black;stroke-width:1" id="rect25594" height="50"/>
      <rect x="-125" y="400" width="50" style="fill:none;stroke:black;stroke-width:1" id="rect25596" height="50"/>
      <rect x="-275" y="450" width="50" style="fill:none;stroke:black;stroke-width:1" id="rect25598" height="50"/>
      <rect x="-225" y="450" width="50" style="fill:none;stroke:black;stroke-width:1" id="rect25600" height="50"/>
      <rect x="-175" y="450" width="50" style="fill:none;stroke:black;stroke-width:1" id="rect25602" height="50"/>
      <rect x="-125" y="450" width="50" style="fill:none;stroke:black;stroke-width:1" id="rect25604" height="50"/>
      <rect x="-275" y="500" width="50" style="fill:none;stroke:black;stroke-width:1" id="rect25606" height="50"/>
      <rect x="-225" y="500" width="50" style="fill:none;stroke:black;stroke-width:1" id="rect25608" height="50"/>
      <rect x="-175" y="500" width="50" style="fill:none;stroke:black;stroke-width:1" id="rect25610" height="50"/>
      <rect x="-125" y="500" width="50" style="fill:none;stroke:black;stroke-width:1" id="rect25612" height="50"/>
      <rect x="-275" y="550" width="50" style="fill:none;stroke:black;stroke-width:1" id="rect25614" height="50"/>
      <rect x="-225" y="550" width="50" style="fill:none;stroke:black;stroke-width:1" id="rect25616" height="50"/>
      <rect x="-175" y="550" width="50" style="fill:none;stroke:black;stroke-width:1" id="rect25618" height="50"/>
      <rect x="-125" y="550" width="50" style="fill:none;stroke:black;stroke-width:1" id="rect25620" height="50"/>
    </g>
    <text xml:space="preserve" x="-252.69911" id="text26544" y="123.16586" style="font-size:18px;font-style:italic;font-variant:normal;font-weight:bold;font-stretch:normal;text-align:start;line-height:100%;writing-mode:lr-tb;text-anchor:start;fill:black;fill-opacity:1;stroke:none;stroke-width:1pt;stroke-linecap:butt;stroke-linejoin:miter;stroke-opacity:1;font-family:Nimbus Sans L"><tspan x="-252.69911" id="tspan26546" y="123.16586">Non-Mechanized</tspan><tspan x="-252.69911" id="tspan26548" y="141.16586">REMNANT UNITS</tspan></text>
    <g id="g3320">
      <rect x="-25" y="150" width="50" style="fill:none;stroke:black;stroke-width:1" id="rect26482" height="50"/>
      <rect x="25" y="150" width="50" style="fill:none;stroke:black;stroke-width:1" id="rect26484" height="50"/>
      <rect x="75" y="150" width="50" style="fill:none;stroke:black;stroke-width:1" id="rect26486" height="50"/>
      <rect x="125" y="150" width="50" style="fill:none;stroke:black;stroke-width:1" id="rect26488" height="50"/>
      <rect x="-25" y="200" width="50" style="fill:none;stroke:black;stroke-width:1" id="rect26490" height="50"/>
      <rect x="25" y="200" width="50" style="fill:none;stroke:black;stroke-width:1" id="rect26492" height="50"/>
      <rect x="75" y="200" width="50" style="fill:none;stroke:black;stroke-width:1" id="rect26494" height="50"/>
      <rect x="125" y="200" width="50" style="fill:none;stroke:black;stroke-width:1" id="rect26496" height="50"/>
      <rect x="-25" y="250" width="50" style="fill:none;stroke:black;stroke-width:1" id="rect26498" height="50"/>
      <rect x="25" y="250" width="50" style="fill:none;stroke:black;stroke-width:1" id="rect26500" height="50"/>
      <rect x="75" y="250" width="50" style="fill:none;stroke:black;stroke-width:1" id="rect26502" height="50"/>
      <rect x="125" y="250" width="50" style="fill:none;stroke:black;stroke-width:1" id="rect26504" height="50"/>
      <rect x="-25" y="300" width="50" style="fill:none;stroke:black;stroke-width:1" id="rect26506" height="50"/>
      <rect x="25" y="300" width="50" style="fill:none;stroke:black;stroke-width:1" id="rect26508" height="50"/>
      <rect x="75" y="300" width="50" style="fill:none;stroke:black;stroke-width:1" id="rect26510" height="50"/>
      <rect x="125" y="300" width="50" style="fill:none;stroke:black;stroke-width:1" id="rect26512" height="50"/>
      <rect x="-25" y="350" width="50" style="fill:none;stroke:black;stroke-width:1" id="rect26514" height="50"/>
      <rect x="25" y="350" width="50" style="fill:none;stroke:black;stroke-width:1" id="rect26516" height="50"/>
      <rect x="75" y="350" width="50" style="fill:none;stroke:black;stroke-width:1" id="rect26518" height="50"/>
      <rect x="-25" y="400" width="50" style="fill:none;stroke:black;stroke-width:1" id="rect26520" height="50"/>
      <rect x="25" y="400" width="50" style="fill:none;stroke:black;stroke-width:1" id="rect26522" height="50"/>
      <rect x="75" y="400" width="50" style="fill:none;stroke:black;stroke-width:1" id="rect26524" height="50"/>
      <rect x="125" y="400" width="50" style="fill:none;stroke:black;stroke-width:1" id="rect26526" height="50"/>
      <rect x="-25" y="450" width="50" style="fill:none;stroke:black;stroke-width:1" id="rect26528" height="50"/>
      <rect x="25" y="450" width="50" style="fill:none;stroke:black;stroke-width:1" id="rect26530" height="50"/>
      <rect x="75" y="450" width="50" style="fill:none;stroke:black;stroke-width:1" id="rect26532" height="50"/>
      <rect x="125" y="450" width="50" style="fill:none;stroke:black;stroke-width:1" id="rect26534" height="50"/>
      <rect x="-25" y="500" width="50" style="fill:none;stroke:black;stroke-width:1" id="rect26536" height="50"/>
      <rect x="25" y="500" width="50" style="fill:none;stroke:black;stroke-width:1" id="rect26538" height="50"/>
      <rect x="75" y="500" width="50" style="fill:none;stroke:black;stroke-width:1" id="rect26540" height="50"/>
      <rect x="125" y="500" width="50" style="fill:none;stroke:black;stroke-width:1" id="rect26542" height="50"/>
    </g>
    <text xml:space="preserve" x="-2.6811094" id="text26564" y="123.16586" style="font-size:18px;font-style:italic;font-variant:normal;font-weight:bold;font-stretch:normal;text-align:start;line-height:100%;writing-mode:lr-tb;text-anchor:start;fill:black;fill-opacity:1;stroke:none;stroke-width:1pt;stroke-linecap:butt;stroke-linejoin:miter;stroke-opacity:1;font-family:Nimbus Sans L"><tspan x="-2.6811094" id="tspan26566" y="123.16586">Mechanized</tspan><tspan x="-2.6811094" id="tspan26568" y="141.16586">REMNANT UNITS</tspan></text>
  </g>
  <text xml:space="preserve" x="30.112" id="text1939" y="31.723999" style="font-size:24px;font-style:normal;font-variant:normal;font-weight:normal;font-stretch:normal;text-align:start;line-height:125%;writing-mode:lr-tb;text-anchor:start;fill:black;fill-opacity:1;stroke:none;stroke-width:1pt;stroke-linecap:butt;stroke-linejoin:miter;stroke-opacity:1;font-family:Nimbus Sans L"><tspan x="30.112" id="tspan1941" y="31.723999">GERMAN REMNANT UNITS</tspan></text>
</svg>